<?xml version="1.0" encoding="UTF-8"?>
<svg id="Layer_1" data-name="Layer 1" xmlns="http://www.w3.org/2000/svg" version="1.1" viewBox="0 0 225 225">
  <defs>
    <style>
      .cls-1 {
        fill: #f9e316;
        stroke-width: 0px;
      }
    </style>
  </defs>
  <path class="cls-1" d="M171,33.7c-9.4-7.2-20.7-12.2-32-15.4-11.1-3.1-23.6-4.4-35-2.9-21.4,2.8-41,11-57,25.7-40.4,37.3-40.4,105.3-1.9,143.7,12,12,27.6,20.5,43.9,24.9,10.5,2.9,22.2,4.2,33,2.9,16.8-2,33-7.3,47-17.2,54.9-38.6,54.6-121.8,2-161.9ZM160,187.8c-10.5,7-22.6,11-35,12.8-10,1.4-21.2.7-31-1.7-10.4-2.5-20.3-6.9-29-13.1-49.5-34.9-47.2-113.4,4-145.4,10-6.3,21.3-10.3,33-12,10.7-1.5,22.6-.9,33,1.7,10.1,2.5,19.6,6.7,28,12.8,49,35.6,47.4,111.4-3,144.9Z"/>
  <g>
    <path class="cls-1" d="M127,50c11.3-4.9,1.8-17.1-7.9-13.2-11.3,4.5-1.9,17.5,7.9,13.2Z"/>
    <path class="cls-1" d="M89,53.4c12-2.9,4-17.1-6-14.8-12,2.7-3.9,17.2,6,14.8Z"/>
    <path class="cls-1" d="M158,49.2c-5.6-.6-11.4,0-17-.2-3.3-.1-6.1-.7-9,1.4-5.7,4.2-8.6,11.7-14.3,15.8-2.5,1.7-5.8,2.1-8.7,2.9,0-3.3.3-6.8-.6-10-1.8-6.1-7.9-8.2-13.4-5.6-7.7,3.6-16.5,12.3-20.9,19.6-4.2,6.9-.5,11.2,6.9,10.3,2.4-.3,4.7-.6,7-1.2,3.7-.8,7.4-1.8,11-3.1-.2,5.5-1.1,14.5-7,17.1-3.7,1.6-5.7-3.8-7.5-6-4.3-5-11.8-7.1-17.4-2.7-6.5,5.2-9.9,21.3-2,26.8,5.7,3.9,14.4,1.5,19.9-1.3,3.9,9.3,9.9,18.1,14.7,27,5.9,10.9,11,22.2,17.2,33,4.2,7.3,10.2,16,19.1,17-2-14.7-18.5-24.9-23-39,9,11.4,16.9,24.5,29,33-.9,1.3-2.5,2.8-2.1,4.7.8,3.8,10.2,2.9,11.5-.1,2.5-5.9-8.5-14.8-11.8-18.6-6.1-7-12.6-13.7-18.4-21-2.4-3-5.4-6.3-6.6-10-1.3-3.9-.7-9-.5-13,.4-13.1,22.2-13.3,17.6-28.9-2.6-8.6-12.1-1.8-17.6-1.1,3.4-8.9,6-21.6,15-26.6,9.6-5.3,28.2-3.8,34.1-14.4,2.3-4-1.9-5.4-5.2-5.8ZM70.4,102c.3-1.7,1-3.4,1.6-5,1.4.3,2.8.4,4,1.2.9.6,1.8,1.1,2.4,2,5.3,8.2-9.4,10.8-8,1.8ZM83,75c3.3-6.4,8.6-12.2,16-13,.2,2.2,1.2,5.4.3,7.6-1.7,4.2-12.4,5.2-16.3,5.4ZM106.2,101c-1.1,9.2,1.8,18.1-2.2,27-1.9-4.7-3.7-9.4-5.8-14-1.1-2.4-3-5.2-2.4-8,1.2-5.5,7.5-9.4,9.4-15,1.9-5.6.7-13.8,7.8-15-1.3,8.5-5.8,16.4-6.8,25ZM126,100c-1.3,4.9-4,7.8-9,9,1.8-4.7,3.9-7.9,9-9ZM139,58c3.4-1.4,6.4-3.2,10-2-3.2,1.6-6.4,3.1-10,2Z"/>
  </g>
  <path class="cls-1" d="M84,177l-4-1c5.4-9.2,14.5-20.4,16.4-31,.6-3.5-.6-7.2-3.6-9.3-1.5-1-4.5-2.1-5.7-.1-1.1,1.8.7,4.4.6,6.4,0,2.1-1.1,4.1-2.1,6-3.7,7.3-8.7,14-12.9,21-2.4,3.9-5.4,8.3-5.6,13-.2,4.3,3.2,5,6.8,4.1,5.1-1.2,8.3-4.2,10-9.1Z"/>
</svg>