<?xml version="1.0" encoding="UTF-8"?>
<svg xmlns="http://www.w3.org/2000/svg" xmlns:xlink="http://www.w3.org/1999/xlink" width="100px" height="100px" viewBox="0 0 100 102" version="1.1">
<g id="surface1">
<path style=" stroke:none;fill-rule:nonzero;fill:rgb(4.313726%,5.882353%,54.509807%);fill-opacity:1;" d="M 79.707031 9.785156 C 74.863281 6.113281 69.042969 3.519531 63.199219 1.894531 C 57.496094 0.304688 51.039062 -0.359375 45.144531 0.421875 C 34.132812 1.878906 24.003906 6.0625 15.753906 13.632812 C -5.085938 32.757812 -5.070312 67.664062 14.757812 87.382812 C 20.964844 93.5625 28.980469 97.882812 37.410156 100.175781 C 42.8125 101.648438 48.835938 102.3125 54.433594 101.648438 C 63.121094 100.613281 71.460938 97.882812 78.679688 92.847656 C 107.015625 73.058594 106.867188 30.375 79.707031 9.785156 Z M 74.035156 88.859375 C 68.597656 92.449219 62.402344 94.503906 55.980469 95.414062 C 50.808594 96.148438 45.058594 95.746094 39.992188 94.539062 C 34.644531 93.261719 29.539062 90.988281 25.035156 87.832031 C -0.484375 69.949219 0.675781 29.644531 27.09375 13.25 C 32.265625 10.039062 38.078125 7.953125 44.117188 7.097656 C 49.640625 6.308594 55.753906 6.621094 61.140625 7.964844 C 66.328125 9.261719 71.238281 11.390625 75.585938 14.53125 C 100.875 32.792969 100.054688 71.675781 74.035156 88.859375 Z M 74.035156 88.859375 "/>
<path style=" stroke:none;fill-rule:nonzero;fill:rgb(4.313726%,5.882353%,54.509807%);fill-opacity:1;" d="M 56.984375 18.15625 C 62.832031 15.667969 57.9375 9.371094 52.894531 11.359375 C 47.039062 13.671875 51.914062 20.316406 56.984375 18.15625 Z M 56.984375 18.15625 "/>
<path style=" stroke:none;fill-rule:nonzero;fill:rgb(4.313726%,5.882353%,54.509807%);fill-opacity:1;" d="M 37.402344 19.902344 C 43.605469 18.414062 39.46875 11.144531 34.320312 12.285156 C 28.148438 13.65625 32.296875 21.125 37.402344 19.902344 Z M 37.402344 19.902344 "/>
<path style=" stroke:none;fill-rule:nonzero;fill:rgb(4.313726%,5.882353%,54.509807%);fill-opacity:1;" d="M 73 17.738281 C 70.113281 17.40625 67.136719 17.738281 64.234375 17.632812 C 62.539062 17.570312 61.074219 17.277344 59.609375 18.347656 C 56.667969 20.507812 55.195312 24.371094 52.214844 26.445312 C 50.933594 27.335938 49.210938 27.523438 47.726562 27.910156 C 47.726562 26.238281 47.90625 24.40625 47.429688 22.78125 C 46.515625 19.636719 43.359375 18.582031 40.507812 19.925781 C 36.539062 21.800781 32.019531 26.253906 29.75 29.964844 C 27.597656 33.488281 29.472656 35.71875 33.285156 35.230469 C 34.5 35.078125 35.703125 34.90625 36.894531 34.640625 C 38.8125 34.207031 40.730469 33.734375 42.566406 33.046875 C 42.441406 35.84375 41.996094 40.511719 38.957031 41.804688 C 37.074219 42.613281 36.023438 39.839844 35.078125 38.734375 C 32.878906 36.167969 28.964844 35.085938 26.121094 37.371094 C 22.757812 40.0625 21.011719 48.316406 25.089844 51.132812 C 28.007812 53.15625 32.503906 51.910156 35.347656 50.492188 C 37.367188 55.285156 40.433594 59.765625 42.925781 64.34375 C 45.972656 69.949219 48.589844 75.75 51.792969 81.277344 C 53.953125 85.011719 57.058594 89.488281 61.660156 89.996094 C 60.652344 82.449219 52.109375 77.222656 49.792969 69.984375 C 54.441406 75.816406 58.535156 82.558594 64.753906 86.914062 C 64.269531 87.609375 63.472656 88.371094 63.667969 89.328125 C 64.070312 91.261719 68.914062 90.820312 69.578125 89.253906 C 70.867188 86.203125 65.195312 81.675781 63.503906 79.726562 C 60.363281 76.121094 57 72.699219 54.03125 68.953125 C 52.800781 67.402344 51.226562 65.738281 50.601562 63.824219 C 49.953125 61.828125 50.253906 59.230469 50.320312 57.152344 C 50.53125 50.410156 61.769531 50.332031 59.375 42.320312 C 58.046875 37.890625 53.109375 41.410156 50.3125 41.761719 C 52.074219 37.1875 53.417969 30.683594 58.054688 28.121094 C 63.003906 25.386719 72.582031 26.175781 75.671875 20.714844 C 76.84375 18.640625 74.703125 17.929688 73.015625 17.734375 Z M 27.808594 44.851562 C 27.945312 43.96875 28.328125 43.113281 28.636719 42.273438 C 29.351562 42.417969 30.058594 42.464844 30.691406 42.882812 C 31.140625 43.175781 31.632812 43.46875 31.9375 43.929688 C 34.691406 48.144531 27.078125 49.476562 27.808594 44.851562 Z M 34.316406 30.988281 C 36.003906 27.707031 38.742188 24.742188 42.566406 24.316406 C 42.652344 25.453125 43.167969 27.109375 42.726562 28.199219 C 41.835938 30.375 36.34375 30.894531 34.316406 30.988281 Z M 46.273438 44.328125 C 45.703125 49.054688 47.210938 53.601562 45.144531 58.183594 C 44.164062 55.789062 43.257812 53.339844 42.164062 51 C 41.589844 49.765625 40.617188 48.324219 40.925781 46.894531 C 41.53125 44.089844 44.796875 42.046875 45.785156 39.199219 C 46.78125 36.328125 46.128906 32.109375 49.789062 31.5 C 49.136719 35.890625 46.808594 39.914062 46.273438 44.328125 Z M 56.492188 43.8125 C 55.828125 46.339844 54.410156 47.808594 51.847656 48.433594 C 52.78125 46.023438 53.867188 44.367188 56.492188 43.8125 Z M 63.199219 22.265625 C 64.9375 21.5625 66.515625 20.605469 68.355469 21.242188 C 66.6875 22.078125 65.03125 22.824219 63.199219 22.265625 Z M 63.199219 22.265625 "/>
<path style=" stroke:none;fill-rule:nonzero;fill:rgb(4.313726%,5.882353%,54.509807%);fill-opacity:1;" d="M 34.828125 83.324219 L 32.765625 82.808594 C 35.53125 78.101562 40.265625 72.328125 41.238281 66.902344 C 41.5625 65.113281 40.945312 63.222656 39.402344 62.152344 C 38.648438 61.632812 37.089844 61.066406 36.460938 62.085938 C 35.875 63.039062 36.804688 64.355469 36.796875 65.359375 C 36.785156 66.460938 36.210938 67.484375 35.726562 68.433594 C 33.820312 72.1875 31.257812 75.628906 29.054688 79.207031 C 27.839844 81.1875 26.277344 83.453125 26.179688 85.855469 C 26.09375 88.0625 27.832031 88.40625 29.667969 87.957031 C 32.28125 87.320312 33.964844 85.804688 34.824219 83.3125 Z M 34.828125 83.324219 "/>
</g>
</svg>
