<?xml version="1.0" encoding="UTF-8"?>
<svg id="Layer_2" data-name="Layer 2" xmlns="http://www.w3.org/2000/svg" version="1.1" viewBox="0 0 100 100">
  <defs>
    <style>
      .cls-1 {
        fill: #333;
        fill-rule: evenodd;
        stroke-width: 0px;
      }
    </style>
  </defs>
  <path class="cls-1" d="M41,1.9c-.2.1-.4.2-.7.2s-.7.2-.8.4c0,0,0,.2,0,.3,0,0,0,.3-.2.4-.3.5-.5,1.1-.5,1.6s0,.3,0,.6c-.2.5-.3.8-.4,1.3-.2.9,0,1.9.3,2.3v.2c0,0-.3.4-.3.8s.4,1.7.8,2l.2.2v.3c-.6,1-.7,2.4-.3,3s0,.3-.2.6c-.5.3-1.1.4-1.7.3-.4,0-.5,0-.9-.4-1.6-1-4.3-2-6.2-2.4-1.2-.2-2.8-.5-3.2-.6-1-.3-1.3-.4-4.2-1.8-2.1-1-3.8-1.8-4.7-2.2-1.1-.4-2.8-.8-3.4-.8s-.2,0-.4-.3c-.3-.3-.6-.4-.9-.4h-.2c0,0-.4-.3-.6-.3s-.5.2-.8.4l-.2.2h-.4c-.2,0-.5-.2-.7-.3-.5-.2-1.1,0-1.7.2-.7.4-3.1,2.5-3.3,2.9v.9c0,0,0,.2,0,.2-.3.2-.8.5-1.2.6-.3.1-.5.1-1,0h-.8c-.3.2-.3.4,0,.7.5.3,1.7.5,2.3.4.4,0,1.2-.3,1.6-.5h.2c0-.1.5.1.5.1.3.1.6.3.7.3s.2,0,.3.6c.2,1.2.7,1.8,1.3,1.8s.5-.3.3-.9c-.1-.4-.2-1-.2-1.2h.6c.7,0,.8,0,.8-.3s-.3-.5-.6-.5c-.5-.1-.7-.2-.7-.3,0-.2.2-.6.7-1.1l.4-.4v.3c.3.6.8,1,1.2,1s.2,0,.3.2c.4.5,1.1.5,1.6,0l.2-.2.9.5c1.4.7,1.9.9,3.5,1.2,2.6.6,4,1.1,5,1.7.3.2,1,.6,1.6,1,.6.3,1.5.9,2,1.2,1,.7,1.7,1.1,2.6,1.6.8.4,1,.7,1.6,1.2.6.6.9,1.2,1.4,2.2.6,1.2,1,2.6,1.4,4.4.2,1.2.3,2.6,0,3.8-.3,1.6-.7,3.3-1,4.1-.4.8-1.2,1.8-2.4,2.7-.9.7-.8.7-1.8.5-1.4-.2-2.3-.3-3.6-.3s-2,0-3.6.3c-1,.2-1.1.2-1.1.4h1.4l-.5.2c-.3,0-.9.3-1.4.4-1.3.5-2.2.7-3.5,1-.5,0-.6,0-.7.2,0,0,0,.2.3.2s.4,0,.7,0c.5,0,.7.2.5.2h-4.5c0,0,.3.2.5.4.3,0,.8.4,1.2.7,1.2.8,1.9,1.2,2.6,1.4.3,0,.6.2.7.2h0c0,0,0,.3.4.6.5.4,1,.7,1.5.8.3,0,.4,0,.3.2-.1,0-.5.2-.9.3q-.6,0-.6.2c0,0,0,.2.7.7s1.3.8,1.7.9h.3v.2c-.2,0-.2.3,0,.4h1.2c.1,0,0,0-.3.4-.2.2-.5.4-.5.4,0,0,.1.3.5.4.6.2.9,0,1.6,0h0c0,.2,0,.3.2.3s.5,0,.7,0h1.6c0,.2.2,1.9.4,4,.3,2.6.4,3.7.4,5.1s0,1.5.1,2.2v3.7c0,.3-.2,1.2-.3,1.9-.1.7-.3,1.5-.3,1.8,0,1,0,2.3.4,5,.3,2,.5,4.7.7,6.9.1,1.8,0,2.8-.3,4-.2.7-.4,1.1-.9,2-.5.8-.9,1.6-1.1,2.2s-.2,1.2,0,2c.2,1,.3,1.1,1.6,1,1.8,0,2.5-.4,2.9-1.5.3-.7.7-2.4,1.1-4.3,0-.2.1-.6.3-1,.3-1,.3-1.4,0-2.1,0-.3-.2-.7-.3-.9v-1c0-.3.2-1.1.3-1.7,0-.6.3-1.6.3-2.1.7-3.9.8-5.4.7-8,0-1.6,0-1.8.3-2.9.3-1,.6-2,.7-2.7,0-.3,0-1.3.2-2.2,0-2.1,0-2.6.5-3.7.4-1.6.6-1.9.9-1.8,0,0,.2,0,.7-.4l.5-.5h.4c.4-.2,1-.6,1.3-.8l.2-.2.4.8c1.4,2.5,1.8,3.1,3,4.8,1.4,1.8,2.2,2.9,3.8,4.7,1,1.1,1,1.2,1.7,2.4.3.5.7,1.2.9,1.5.6.9.8,1.4,1,2.3.2,1.4.7,3.6,1,4.4.2.7.9,2,1.4,2.8,1.3,2,1.6,2.5,2.2,3.7.8,1.5,1.2,2.3,1.7,3.4.9,1.9,1.5,4.1,1.5,4.7s-.2.8-.5,1.3c-.3.6-.5,1-.5,1.4,0,.6.2,1.3.7,1.9.2.2.3.4.4.7,0,.5.4,1.9.4,2.4s0,.5.3.5.5,0,.6-1.4c0-1,.2-1.3.4-1.5.3-.3.4-.3.9-.2.7.2,1.2.6,2.1,1.5,1.2,1.3,1.6,1.6,2.5,2.1.5.3.8.3,1.4.5,1.1.2,2,.3,2.3,0,.3-.2.5-.8.3-1.1,0,0-.2-.2-.4-.3-.4-.2-.9-.7-1.4-1.4-.2-.3-.5-.6-.7-.8-.4-.4-.5-.7-.7-1.3-.4-1.4-.8-2.3-2.2-4.4-.8-1.1-.9-1.4-1.5-3.2,0-.4-.3-.8-.3-.8l-.4-1c-.2-.6-1.2-3.4-1.6-4.4h.2c.7.6.8.8,1,1.6,0,.9.3,1.3.6,1.9,0,.2.5.4,1.1.6.4,0,.5,0,1.1,0,1.3,0,2.6-.2,2.9-.5.2-.2,0-.4,0-.7,0-.2-1.1-.9-1.6-1.1q-.5-.3-.6-.8c0-.7-.4-1.3-.6-1.7,0-.2-.2-.3-.2-.4s0-.2.2-.4c.3-.3.5-.8.7-1.3,0-.3,0-.5,0-1.5s0-1.2.2-1.5c.2-.6.8-1.7,1.5-2.7.3-.5.9-1.3,1.2-1.7.3-.5,1-1.5,1.5-2.3.9-1.3,1.6-2.4,2.5-4l.2-.4.3.6c.2.3.6,1.1.9,1.7.7,1.2,1.4,2.6,2,3.7.6,1.2.9,1.6,1.8,2.3l.6.6c.2.3.9,1.4,1.5,2.5.2.4.8,1.3,1.1,1.9,1.1,1.7,2.8,4.5,3.4,5.7.3.6.7,1.2.8,1.4.4.5,1.2,1.6,1.6,1.9.3.2.4.4.5.7,0,.2.2.4.2.4,0,0,.2.5.4,1,.2.5.5,1.2.6,1.6.3.8.5,1.3.7,1.4,0,0,.2,0,.7,0h.6l.2.5.2.5v.9c0,1.6.2,1.9.5,2.5.4.6,1.3,1.2,1.9,1.3.4,0,1.3.2,2.1.2h.9c.4-.3.4-.4.5-1v-1.6c0-.4-.6-1.3-1.1-2.1-.5-.7-.6-1.1-.7-1.6,0-.3,0-.5,0-.6q0,0,0-.2h.2v-.5c0-1.4-.3-2.5-1.3-4.6-.3-.6-.8-1.9-1.2-2.8-.4-1-.9-2.1-1.1-2.6-.7-1.7-1.3-2.9-2.7-5.5-.9-1.6-1.2-2.1-2.4-4.2-1.3-2.1-1.5-2.4-2.6-3.5s-.8-.9-.9-1c0,0-.3-.8-.6-1.5-.6-1.7-.8-2.1-1-2.5-.3-.5-.8-1.3-1.3-1.9-.2-.3-.6-.8-.7-1-.4-.5-1.8-2.9-2.2-3.5l-.3-.5v-.3c.4-.5.6-1.1.9-2,0-.5.3-1.1.4-1.4q.2-.5,0-1.1c0-1-.4-2.1-1-3.8-.5-1.3-.5-1.4-.7-3.4v-5c0-1.1.2-1.8.6-3.4.5-2.2.6-2.7.6-3.7s0-.9,0-1c.2-.1,1.4-.5,1.9-.6h2.4c2.9,0,3.5-.1,5.9-1,.9-.3,1.8-.6,2.2-.8.9-.3,2.1-.7,3.1-.9.5-.1.9-.2,1.1-.3h2c0,.2-.2.9-.2,1v1q0,.5,0,.5c0,0,.2,0,.4-.1q.2-.1.2,0t.2.2h.3s.3-.3.6-.5c.4-.4.7-.9.8-1.5,0-.3,0-.3.2-.4.2,0,.2-.1.3-.8v-.9c0-.2,0-.5,0-.7-.2-.4-.6-1.1-.9-1.1v-.2c0-.2,0-.3-.5-.5-.4,0-.5-.1-1.2-.1s-1.8.1-2.3.2c0,0-.6,0-1.1.1-.5,0-1.1.1-1.3.1-.4,0-2.3.3-3,.4-.8,0-1.4.2-2.1.3-.3,0-.9.2-1.3.3-.4,0-1.1.2-1.6.3-1.4.4-2.2.5-3.3.5s-1.7,0-3.1-.4c-.6-.1-1.3-.3-1.6-.3s-.7-.1-.9-.2c-.2,0-.5,0-.7-.1-.3,0-.7-.3-1.4-.8l-.3-.2v-.6c0-.7,0-.9-.2-.8q-.2,0-.2-.6c0-.3,0-.4,0-.5.6-.4.5-.4.8-1.2.3-1,.4-1.2.6-1.6.4-.7.6-1.7.6-2.4s0-.4-.2-.7c0-.2-.2-.4-.3-.6v-.3c0,0,0-.4,0-.4.2-.4.2-.5,0-.9,0-.2-.2-.5-.3-.7,0-.3-.3-.6-.5-1l-.4-.6v-.3c0-.4,0-.7-.5-1.2s-.7-.6-1.1-.8q-.3,0-1.3,0c-1.8,0-2.3.2-2.8.5-.3.2-.9.8-1,1,0,0-.2.3-.4.5-.3.4-.4.5-.7,1.2-.2.6-.3.9-.3,1.7s0,1,.2,1.2v.3c-.4.6-.4.8-.2,1.4.2.5.5,1.1.6,1.3,0,0,.6.3,1,.4,0,0,0,.1.2.4,0,.4.1,1.4.2,1.9q0,.4-.2.7c0,.2-.4.5-.6.8-.2.3-.4.5-.5.6-.3.2-1.1.5-1.7.6-.6.1-.8.1-1.8,0h-1.1c-.4,0-.7.2-1.2.4-.6.3-1.7,1-2.8,1.6-.3.2-.7.4-.8.5q-.3.2-.8.1c-1,0-1.1,0-2.3-.7-1.3-.7-1.4-.8-2.3-1.5-.9-.7-1.2-1-2.4-1.6-1.3-.7-1.5-.9-1.5-1.6s0-.3,0-.3c.3.1.5.1.7,0,.7-.2,1.1-.7,1.3-1.7,0-.6.2-1.9,0-2.2v-.5c0-.2.2-.6.4-.9l.2-.6v-1.7c.2-.6.2-.7,0-1.4-.2-1-.3-1.8-.3-2.4s0-.6-.2-1c-.4-.9-1.2-1.7-2.2-2.1-.4-.2-.6-.2-.9-.2,0,0-.3,0-.5,0-.3,0-.5-.2-.6-.3-.5-.5-1.3-.9-1.6-.9,0,0-.3,0-.5.2l.9.5ZM12.3,7.8q.1,0,0,.2h-.4c-.6,0-.6,0-.3-.3.3,0,.4,0,.6,0h0ZM13.3,8.1c.1.1,0,.1-.3,0-.1,0-.2,0-.2-.1s.4,0,.5,0h0ZM11.2,10.9h.3v.8q0,.1-.1.1c-.3,0-.6-.5-.8-1q0-.1,0,0s.2,0,.4.2h.2ZM12.1,11.3s.2,0,.2.1l-.3.3v-.5h.2,0ZM13,11.7c.2.1.4.2.4.3,0,0-.2.3-.5.4-.3.1-.5,0-.7-.2v-.2c-.1,0,.1-.3.1-.3l.3-.3s.2,0,.4.2h0ZM39.5,12.5c0,.2-.2,2.5-.3,2.7,0,.2-.2.2-.2-.2,0-.4,0-1.1,0-1.6.2-.6.4-1,.4-1h0ZM46.8,14.5c0,1.7-.5,2.8-1.4,2.9-.2,0-.3,0-.4-.1q-.2-.2-.2-.5v-.3h.3c.2-.1.4-.2.6-.4.4-.3.5-.5,1-1.7,0-.2,0-.3.2-.3s0,.2,0,.5h0ZM58.2,29.8c.2.4.7,1.4.9,2,0,.3.4,1,.6,1.5s.6,1.5.8,2.1.5,1.4.7,1.8c.6,1.4.7,2,.7,3.2s0,1.6-.9,3.7c-.4,1.1-1,2.7-1.1,3.3-.2.8-.2,1.6,0,2.3.2.5,1,2.3,1.3,2.8.4.6.9,1.3,1.5,1.9.5.5,1.3,1.2,1.8,1.5h.2c0,0-.2.5-.2.5,0,.2-.3.4-.3.5,0,.2,0,.4.2.7q.3.4,0,.7c-.2.3-.3.5-.4.7-.3.6-.5.9-.7,1.7,0,.3-.2.7-.3.8,0,0-.3.4-.6.7-.7.7-.8,1-1,2.2,0,.3,0,.6-.2.7,0,.3-.6,1.1-.9,1.7,0,.2-.5.8-.7,1.3-.4.8-.6,1.4-1.2,3.2q-.3.8-.6,1.1c-.4.4-.5.7-.6,1.3,0,.3-.2.6-.2.7v.2c0,0-.5-.9-.5-.9-.9-2.2-1.6-4.3-1.7-4.9,0-.2,0-.5,0-.8,0-1.2-.4-2.3-.7-3.3-.2-.5-.3-.7-.7-1.1-.5-.6-.9-1.1-1-1.5,0-.2-.3-.8-.4-1.4-.6-2.1-1.5-5-1.7-5.4h0c0,0,.2,0,.2,0,.4,0,1,0,1-.3s0,0,.3,0c.7.4,1.8.4,2.7,0,.3,0,.3-.2.3-.3,0-.2-.2-.3-.5-.4-.5,0-.8-.3-1.1-.5l-.3-.3h.4c.4,0,.6,0,.6-.2s0-.2-.7-.5c-.2,0-.4-.3-.4-.3,0,0,.2,0,.5,0,.7.2,1.4.3,1.7.3s1-.2,1.4-.4c.5-.3.6-.4.6-.6s0,0-.4,0h-1.4.2c.4-.2.7-.4.7-.6s0,0-.5-.3c-.4-.2-.5-.3-.3-.3.3,0,.4-.4.3-.5,0,0-.2,0-.4,0-.3,0-.6,0-.6-.2s0,0,.3,0c.5,0,1.2-.3,1.5-.4,1.1-.5,1.9-1.6,1.6-1.9s-.3,0-.7,0c-.8.4-1.4.5-2.3.2h-.2v-.2c.2,0,.3-.2,0-.4,0,0-.2,0-.4,0-.2,0-.4,0-.4,0h0c.7-.2.9-.3,1.1-.5.4-.3.7-.6.9-1.1,0-.3,0-.4,0-.4,0,0,0,0-.8,0-.9.3-1.6.3-2.3,0h-.2c0,0,.4-.2.4-.2.5,0,.8-.4.8-.5s0,0,0-.2c0,0-.2,0-1,0s-.9,0-1.4-.2c-2-.6-3.8-1.6-4.3-2.5-.4-.6-.7-1.8-.9-2.7v-3.1c0-1.2.4-2,1-3.3.2-.4.3-.8.4-.9v-.2h.4c.7,0,1.5-.2,2.5-.4.5,0,1.3-.2,1.7-.3.4,0,1-.1,1.4-.1.7,0,2.3-.2,3.2-.3h.7s0,.1.2.3l.3-.5ZM65.3,83.2h0s0,0,0,0h0c0,0,0,0,0,0Z"/>
</svg>